<svg xmlns="http://www.w3.org/2000/svg" width="37.646" height="90.979" viewBox="0 0 37.646 90.979"><defs><style>.a{fill:#fff;}.b{fill:#ea0b00;}.c{fill:#e84200;}.d{fill:#ffd215;}</style></defs><g transform="translate(-1372.934 -390.459)"><g transform="translate(1372.934 390.459)"><g transform="translate(0)"><g transform="translate(0 0)"><rect class="a" width="2.51" height="2.51" transform="translate(35.136 60.233)"/><rect class="a" width="2.51" height="2.51" transform="translate(35.136 57.723)"/><rect class="a" width="2.51" height="2.51" transform="translate(35.136 55.213)"/><rect class="a" width="2.51" height="2.51" transform="translate(35.136 52.704)"/><rect class="a" width="2.51" height="2.51" transform="translate(35.136 50.194)"/><rect class="a" width="2.51" height="2.51" transform="translate(35.136 47.684)"/><rect class="a" width="2.51" height="2.51" transform="translate(35.136 45.174)"/><rect class="a" width="2.51" height="2.51" transform="translate(35.136 42.665)"/><rect class="a" width="2.51" height="2.51" transform="translate(35.136 32.626)"/><rect class="a" width="2.51" height="2.51" transform="translate(32.627 67.762)"/><rect class="a" width="2.51" height="2.51" transform="translate(32.627 65.252)"/><rect class="a" width="2.51" height="2.51" transform="translate(32.627 62.742)"/><rect class="a" width="2.51" height="2.51" transform="translate(32.627 60.233)"/><rect class="a" width="2.51" height="2.51" transform="translate(32.627 57.723)"/><rect class="a" width="2.51" height="2.51" transform="translate(32.627 55.213)"/><rect class="a" width="2.51" height="2.51" transform="translate(32.627 52.704)"/><rect class="a" width="2.51" height="2.51" transform="translate(32.627 50.194)"/><rect class="a" width="2.51" height="2.51" transform="translate(32.627 7.529)"/><rect class="a" width="2.51" height="2.51" transform="translate(30.117 70.272)"/><rect class="a" width="2.51" height="2.51" transform="translate(30.117 67.762)"/><rect class="a" width="2.51" height="2.51" transform="translate(30.117 65.252)"/><rect class="a" width="2.51" height="2.51" transform="translate(30.117 62.742)"/><rect class="a" width="2.51" height="2.51" transform="translate(30.117 60.233)"/><rect class="a" width="2.51" height="2.51" transform="translate(30.117 57.723)"/><rect class="a" width="2.51" height="2.51" transform="translate(30.117 55.213)"/><rect class="a" width="2.51" height="2.51" transform="translate(30.117 52.704)"/><rect class="a" width="2.51" height="2.51" transform="translate(30.117 50.194)"/><rect class="a" width="2.51" height="2.51" transform="translate(30.117 47.684)"/><rect class="a" width="2.51" height="2.51" transform="translate(30.117 45.174)"/><rect class="a" width="2.51" height="2.51" transform="translate(30.117 42.665)"/><rect class="a" width="2.51" height="2.51" transform="translate(30.117 40.155)"/><rect class="a" width="2.51" height="2.51" transform="translate(30.117 22.587)"/><rect class="a" width="2.51" height="2.51" transform="translate(30.117 20.078)"/><rect class="a" width="2.51" height="2.51" transform="translate(30.117 17.567)"/><rect class="a" width="2.51" height="2.51" transform="translate(27.607 70.272)"/><rect class="a" width="2.51" height="2.51" transform="translate(27.607 67.762)"/><rect class="a" width="2.51" height="2.51" transform="translate(27.607 65.252)"/><rect class="a" width="2.51" height="2.51" transform="translate(27.607 62.742)"/><rect class="a" width="2.51" height="2.51" transform="translate(27.607 60.233)"/><rect class="a" width="2.51" height="2.51" transform="translate(27.607 57.723)"/><rect class="a" width="2.51" height="2.51" transform="translate(27.607 55.213)"/><rect class="a" width="2.51" height="2.51" transform="translate(27.607 52.704)"/><rect class="a" width="2.51" height="2.51" transform="translate(27.607 50.194)"/><rect class="a" width="2.51" height="2.51" transform="translate(27.607 47.684)"/><rect class="a" width="2.51" height="2.51" transform="translate(27.607 45.174)"/><rect class="a" width="2.51" height="2.51" transform="translate(27.607 42.665)"/><rect class="a" width="2.51" height="2.51" transform="translate(27.607 40.155)"/><rect class="a" width="2.51" height="2.51" transform="translate(25.097 70.272)"/><rect class="a" width="2.51" height="2.51" transform="translate(25.097 67.762)"/><rect class="a" width="2.51" height="2.51" transform="translate(25.097 65.252)"/><rect class="a" width="2.51" height="2.51" transform="translate(25.097 62.742)"/><rect class="a" width="2.51" height="2.51" transform="translate(25.097 60.233)"/><rect class="a" width="2.51" height="2.51" transform="translate(25.097 57.723)"/><rect class="a" width="2.51" height="2.51" transform="translate(25.097 55.213)"/><rect class="a" width="2.51" height="2.51" transform="translate(25.097 52.704)"/><rect class="a" width="2.51" height="2.51" transform="translate(25.097 50.194)"/><rect class="a" width="2.51" height="2.51" transform="translate(25.097 47.684)"/><rect class="a" width="2.51" height="2.51" transform="translate(25.097 45.174)"/><rect class="a" width="2.51" height="2.51" transform="translate(25.097 42.665)"/><rect class="a" width="2.51" height="2.51" transform="translate(25.097 40.155)"/><rect class="a" width="2.51" height="2.51" transform="translate(25.097 37.645)"/><rect class="a" width="2.51" height="2.51" transform="translate(25.097 35.135)"/><rect class="a" width="2.51" height="2.51" transform="translate(25.097 32.626)"/><rect class="a" width="2.51" height="2.51" transform="translate(22.588 70.272)"/><rect class="a" width="2.51" height="2.51" transform="translate(22.588 67.762)"/><rect class="a" width="2.51" height="2.51" transform="translate(22.588 65.252)"/><rect class="a" width="2.51" height="2.51" transform="translate(22.588 62.742)"/><rect class="a" width="2.51" height="2.51" transform="translate(22.588 60.233)"/><rect class="a" width="2.51" height="2.51" transform="translate(22.588 57.723)"/><rect class="a" width="2.51" height="2.51" transform="translate(22.588 55.213)"/><rect class="a" width="2.51" height="2.51" transform="translate(22.588 52.704)"/><rect class="a" width="2.51" height="2.51" transform="translate(22.588 50.194)"/><rect class="a" width="2.51" height="2.51" transform="translate(22.588 47.684)"/><rect class="a" width="2.51" height="2.51" transform="translate(22.588 45.174)"/><rect class="a" width="2.51" height="2.51" transform="translate(22.588 42.665)"/><rect class="a" width="2.51" height="2.51" transform="translate(22.588 40.155)"/><rect class="a" width="2.51" height="2.51" transform="translate(22.588 37.645)"/><rect class="a" width="2.51" height="2.51" transform="translate(22.588 35.135)"/><rect class="a" width="2.51" height="2.51" transform="translate(22.588 32.626)"/><rect class="a" width="2.51" height="2.51" transform="translate(22.588 30.116)"/><rect class="a" width="2.51" height="2.51" transform="translate(22.588 27.606)"/><rect class="a" width="2.51" height="2.51" transform="translate(22.588 25.097)"/><rect class="a" width="2.51" height="2.51" transform="translate(20.078 70.272)"/><rect class="a" width="2.51" height="2.51" transform="translate(20.078 67.762)"/><rect class="a" width="2.51" height="2.51" transform="translate(20.078 65.252)"/><rect class="a" width="2.51" height="2.51" transform="translate(20.078 62.742)"/><rect class="a" width="2.51" height="2.51" transform="translate(20.078 60.233)"/><rect class="a" width="2.51" height="2.51" transform="translate(20.078 57.723)"/><rect class="a" width="2.51" height="2.51" transform="translate(20.078 55.213)"/><rect class="a" width="2.51" height="2.51" transform="translate(20.078 52.704)"/><rect class="a" width="2.51" height="2.51" transform="translate(20.078 50.194)"/><rect class="a" width="2.51" height="2.51" transform="translate(20.078 47.684)"/><rect class="a" width="2.51" height="2.51" transform="translate(20.078 45.174)"/><rect class="a" width="2.51" height="2.51" transform="translate(20.078 42.665)"/><rect class="a" width="2.51" height="2.51" transform="translate(20.078 40.155)"/><rect class="a" width="2.51" height="2.51" transform="translate(20.078 37.645)"/><rect class="a" width="2.51" height="2.51" transform="translate(20.078 35.135)"/><rect class="a" width="2.51" height="2.51" transform="translate(20.078 32.626)"/><rect class="a" width="2.51" height="2.51" transform="translate(20.078 30.116)"/><rect class="a" width="2.51" height="2.51" transform="translate(20.078 27.606)"/><rect class="a" width="2.51" height="2.51" transform="translate(20.078 25.097)"/><rect class="a" width="2.51" height="2.51" transform="translate(20.078 12.548)"/><rect class="a" width="2.51" height="2.51" transform="translate(20.078 5.019)"/><rect class="a" width="2.51" height="2.51" transform="translate(17.568 70.272)"/><rect class="a" width="2.51" height="2.51" transform="translate(17.568 67.762)"/><rect class="a" width="2.51" height="2.51" transform="translate(17.568 65.252)"/><rect class="a" width="2.51" height="2.51" transform="translate(17.568 62.742)"/><rect class="a" width="2.51" height="2.51" transform="translate(17.568 60.233)"/><rect class="a" width="2.51" height="2.51" transform="translate(17.568 57.723)"/><rect class="a" width="2.51" height="2.51" transform="translate(17.568 55.213)"/><rect class="a" width="2.51" height="2.51" transform="translate(17.568 52.704)"/><rect class="a" width="2.51" height="2.51" transform="translate(17.568 50.194)"/><rect class="a" width="2.51" height="2.51" transform="translate(17.568 47.684)"/><rect class="a" width="2.51" height="2.51" transform="translate(17.568 45.174)"/><rect class="a" width="2.51" height="2.51" transform="translate(17.568 42.665)"/><rect class="a" width="2.51" height="2.51" transform="translate(17.568 40.155)"/><rect class="a" width="2.51" height="2.51" transform="translate(17.568 37.645)"/><rect class="a" width="2.51" height="2.51" transform="translate(17.568 35.135)"/><rect class="a" width="2.51" height="2.51" transform="translate(17.568 32.626)"/><rect class="a" width="2.51" height="2.51" transform="translate(17.568 30.116)"/><rect class="a" width="2.51" height="2.51" transform="translate(17.568 27.606)"/><rect class="a" width="2.51" height="2.51" transform="translate(17.568 25.097)"/><rect class="a" width="2.51" height="2.51" transform="translate(17.568 22.587)"/><rect class="a" width="2.51" height="2.51" transform="translate(17.568 20.078)"/><rect class="a" width="2.51" height="2.51" transform="translate(17.568 17.567)"/><rect class="a" width="2.51" height="2.51" transform="translate(15.059 70.272)"/><rect class="a" width="2.51" height="2.51" transform="translate(15.059 67.762)"/><rect class="a" width="2.51" height="2.51" transform="translate(15.059 65.252)"/><rect class="a" width="2.51" height="2.51" transform="translate(15.059 62.742)"/><rect class="a" width="2.51" height="2.51" transform="translate(15.059 60.233)"/><rect class="a" width="2.51" height="2.51" transform="translate(15.059 57.723)"/><rect class="a" width="2.51" height="2.51" transform="translate(15.059 55.213)"/><rect class="a" width="2.51" height="2.51" transform="translate(15.059 52.704)"/><rect class="a" width="2.51" height="2.51" transform="translate(15.059 50.194)"/><rect class="a" width="2.51" height="2.51" transform="translate(15.059 47.684)"/><rect class="a" width="2.51" height="2.51" transform="translate(15.059 45.174)"/><rect class="a" width="2.51" height="2.51" transform="translate(15.059 42.665)"/><rect class="a" width="2.51" height="2.51" transform="translate(15.059 40.155)"/><rect class="a" width="2.51" height="2.51" transform="translate(15.059 37.645)"/><rect class="a" width="2.51" height="2.51" transform="translate(15.059 35.135)"/><rect class="a" width="2.51" height="2.51" transform="translate(15.059 32.626)"/><rect class="a" width="2.51" height="2.51" transform="translate(15.059 30.116)"/><rect class="a" width="2.51" height="2.51" transform="translate(15.059 27.606)"/><rect class="a" width="2.51" height="2.51" transform="translate(15.059 25.097)"/><rect class="a" width="2.51" height="2.51" transform="translate(15.059 22.587)"/><rect class="a" width="2.51" height="2.51" transform="translate(15.059 20.078)"/><rect class="a" width="2.51" height="2.51" transform="translate(15.059 17.567)"/><rect class="a" width="2.51" height="2.51" transform="translate(12.549 70.272)"/><rect class="a" width="2.51" height="2.51" transform="translate(12.549 67.762)"/><rect class="a" width="2.51" height="2.51" transform="translate(12.549 65.252)"/><rect class="a" width="2.51" height="2.51" transform="translate(12.549 62.742)"/><rect class="a" width="2.51" height="2.51" transform="translate(12.549 60.233)"/><rect class="a" width="2.51" height="2.51" transform="translate(12.549 57.723)"/><rect class="a" width="2.51" height="2.51" transform="translate(12.549 55.213)"/><rect class="a" width="2.51" height="2.51" transform="translate(12.549 52.704)"/><rect class="a" width="2.51" height="2.51" transform="translate(12.549 50.194)"/><rect class="a" width="2.51" height="2.51" transform="translate(12.549 47.684)"/><rect class="a" width="2.51" height="2.51" transform="translate(12.549 45.174)"/><rect class="a" width="2.51" height="2.51" transform="translate(12.549 42.665)"/><rect class="a" width="2.51" height="2.51" transform="translate(12.549 40.155)"/><rect class="a" width="2.51" height="2.51" transform="translate(12.549 37.645)"/><rect class="a" width="2.51" height="2.51" transform="translate(12.549 35.135)"/><rect class="a" width="2.51" height="2.51" transform="translate(12.549 32.626)"/><rect class="a" width="2.51" height="2.51" transform="translate(12.549 30.116)"/><rect class="a" width="2.51" height="2.51" transform="translate(12.549 27.606)"/><rect class="a" width="2.51" height="2.51" transform="translate(12.549 5.019)"/><rect class="a" width="2.51" height="2.51" transform="translate(12.549 2.51)"/><rect class="a" width="2.51" height="2.51" transform="translate(12.549)"/><rect class="a" width="2.51" height="2.51" transform="translate(10.04 70.272)"/><rect class="a" width="2.51" height="2.51" transform="translate(10.04 67.762)"/><rect class="a" width="2.51" height="2.51" transform="translate(10.04 65.252)"/><rect class="a" width="2.51" height="2.51" transform="translate(10.04 62.742)"/><rect class="a" width="2.51" height="2.51" transform="translate(10.04 60.233)"/><rect class="a" width="2.51" height="2.51" transform="translate(10.04 57.723)"/><rect class="a" width="2.51" height="2.51" transform="translate(10.04 55.213)"/><rect class="a" width="2.51" height="2.51" transform="translate(10.04 52.704)"/><rect class="a" width="2.51" height="2.51" transform="translate(10.04 50.194)"/><rect class="a" width="2.51" height="2.51" transform="translate(10.04 47.684)"/><rect class="a" width="2.51" height="2.51" transform="translate(10.04 45.174)"/><rect class="a" width="2.51" height="2.51" transform="translate(10.04 42.665)"/><rect class="a" width="2.51" height="2.51" transform="translate(10.04 40.155)"/><rect class="a" width="2.51" height="2.51" transform="translate(10.04 37.645)"/><rect class="a" width="2.51" height="2.51" transform="translate(10.04 35.135)"/><rect class="a" width="2.51" height="2.51" transform="translate(10.04 32.626)"/><rect class="a" width="2.51" height="2.51" transform="translate(10.04 30.116)"/><rect class="a" width="2.51" height="2.51" transform="translate(10.04 27.606)"/><rect class="a" width="2.51" height="2.51" transform="translate(10.04 20.078)"/><rect class="a" width="2.51" height="2.51" transform="translate(10.04 17.567)"/><rect class="a" width="2.51" height="2.51" transform="translate(10.04 15.058)"/><rect class="a" width="2.51" height="2.51" transform="translate(7.529 70.272)"/><rect class="a" width="2.51" height="2.51" transform="translate(7.529 67.762)"/><rect class="a" width="2.51" height="2.51" transform="translate(7.529 65.252)"/><rect class="a" width="2.51" height="2.51" transform="translate(7.529 62.742)"/><rect class="a" width="2.51" height="2.51" transform="translate(7.529 60.233)"/><rect class="a" width="2.51" height="2.51" transform="translate(7.529 57.723)"/><rect class="a" width="2.51" height="2.51" transform="translate(7.529 55.213)"/><rect class="a" width="2.51" height="2.51" transform="translate(7.529 52.704)"/><rect class="a" width="2.51" height="2.51" transform="translate(7.529 50.194)"/><rect class="a" width="2.51" height="2.51" transform="translate(7.529 47.684)"/><rect class="a" width="2.51" height="2.51" transform="translate(7.529 45.174)"/><rect class="a" width="2.51" height="2.51" transform="translate(7.529 42.665)"/><rect class="a" width="2.51" height="2.51" transform="translate(7.529 40.155)"/><rect class="a" width="2.51" height="2.51" transform="translate(7.529 37.645)"/><rect class="a" width="2.51" height="2.51" transform="translate(5.02 67.762)"/><rect class="a" width="2.51" height="2.51" transform="translate(5.02 65.252)"/><rect class="a" width="2.51" height="2.51" transform="translate(5.02 62.742)"/><rect class="a" width="2.51" height="2.51" transform="translate(5.02 60.233)"/><rect class="a" width="2.51" height="2.51" transform="translate(5.02 57.723)"/><rect class="a" width="2.51" height="2.51" transform="translate(5.02 55.213)"/><rect class="a" width="2.51" height="2.51" transform="translate(5.02 52.704)"/><rect class="a" width="2.51" height="2.51" transform="translate(5.02 50.194)"/><rect class="a" width="2.51" height="2.51" transform="translate(5.02 47.684)"/><rect class="a" width="2.51" height="2.51" transform="translate(5.02 45.174)"/><rect class="a" width="2.51" height="2.51" transform="translate(5.02 42.665)"/><rect class="a" width="2.51" height="2.51" transform="translate(2.51 65.252)"/><rect class="a" width="2.51" height="2.51" transform="translate(2.51 62.742)"/><rect class="a" width="2.51" height="2.51" transform="translate(2.51 60.233)"/><rect class="a" width="2.51" height="2.51" transform="translate(2.51 57.723)"/><rect class="a" width="2.51" height="2.51" transform="translate(2.51 55.213)"/><rect class="a" width="2.51" height="2.51" transform="translate(2.51 52.704)"/><rect class="a" width="2.51" height="2.51" transform="translate(2.51 50.194)"/><rect class="a" width="2.51" height="2.51" transform="translate(2.51 25.097)"/><rect class="a" width="2.51" height="2.51" transform="translate(0 57.723)"/><rect class="a" width="2.51" height="2.51" transform="translate(0 55.213)"/><rect class="a" width="2.51" height="2.51" transform="translate(0 52.704)"/><rect class="a" width="2.51" height="2.51" transform="translate(0 50.194)"/><rect class="a" width="2.51" height="2.51" transform="translate(0 47.684)"/><rect class="a" width="2.51" height="2.51" transform="translate(0 45.174)"/><rect class="a" width="2.51" height="2.51" transform="translate(0 37.645)"/><rect class="a" width="2.51" height="2.51" transform="translate(0 12.548)"/><rect class="a" width="2.51" height="2.51" transform="translate(0 10.039)"/></g><g transform="translate(7.529 20.078)"><rect class="a" width="2.51" height="2.51" transform="translate(20.078 45.174)"/><rect class="a" width="2.51" height="2.51" transform="translate(20.078 42.665)"/><rect class="a" width="2.51" height="2.51" transform="translate(20.078 40.155)"/><rect class="a" width="2.51" height="2.51" transform="translate(20.078 37.646)"/><rect class="a" width="2.51" height="2.51" transform="translate(20.078 35.135)"/><rect class="a" width="2.51" height="2.51" transform="translate(20.078 32.626)"/><rect class="a" width="2.51" height="2.51" transform="translate(20.078 30.116)"/><rect class="a" width="2.51" height="2.51" transform="translate(20.078 22.587)"/><rect class="a" width="2.51" height="2.51" transform="translate(17.568 47.685)"/><rect class="a" width="2.51" height="2.51" transform="translate(17.568 45.174)"/><rect class="a" width="2.51" height="2.51" transform="translate(17.568 42.665)"/><rect class="a" width="2.51" height="2.51" transform="translate(17.568 40.155)"/><rect class="a" width="2.51" height="2.51" transform="translate(17.568 37.646)"/><rect class="a" width="2.51" height="2.51" transform="translate(17.568 35.135)"/><rect class="a" width="2.51" height="2.51" transform="translate(17.568 32.626)"/><rect class="a" width="2.51" height="2.51" transform="translate(17.568 30.116)"/><rect class="a" width="2.51" height="2.51" transform="translate(17.568 27.606)"/><rect class="a" width="2.51" height="2.51" transform="translate(15.059 47.685)"/><rect class="a" width="2.51" height="2.51" transform="translate(15.059 45.174)"/><rect class="a" width="2.51" height="2.51" transform="translate(15.059 42.665)"/><rect class="a" width="2.51" height="2.51" transform="translate(15.059 40.155)"/><rect class="a" width="2.51" height="2.51" transform="translate(15.059 37.646)"/><rect class="a" width="2.51" height="2.51" transform="translate(15.059 35.135)"/><rect class="a" width="2.51" height="2.51" transform="translate(15.059 32.626)"/><rect class="a" width="2.51" height="2.51" transform="translate(15.059 30.116)"/><rect class="a" width="2.51" height="2.51" transform="translate(15.059 27.606)"/><rect class="a" width="2.51" height="2.51" transform="translate(15.059 25.097)"/><rect class="a" width="2.51" height="2.51" transform="translate(15.059 22.587)"/><rect class="a" width="2.51" height="2.51" transform="translate(15.059 20.078)"/><rect class="a" width="2.51" height="2.51" transform="translate(15.059 17.567)"/><rect class="a" width="2.51" height="2.51" transform="translate(15.059 15.058)"/><rect class="a" width="2.51" height="2.51" transform="translate(12.549 47.685)"/><rect class="a" width="2.51" height="2.51" transform="translate(12.549 45.174)"/><rect class="a" width="2.51" height="2.51" transform="translate(12.549 42.665)"/><rect class="a" width="2.51" height="2.51" transform="translate(12.549 40.155)"/><rect class="a" width="2.51" height="2.51" transform="translate(12.549 37.646)"/><rect class="a" width="2.51" height="2.51" transform="translate(12.549 35.135)"/><rect class="a" width="2.51" height="2.51" transform="translate(12.549 32.626)"/><rect class="a" width="2.51" height="2.51" transform="translate(12.549 30.116)"/><rect class="a" width="2.51" height="2.51" transform="translate(12.549 27.606)"/><rect class="a" width="2.51" height="2.51" transform="translate(12.549 25.097)"/><rect class="a" width="2.51" height="2.51" transform="translate(12.549 22.587)"/><rect class="a" width="2.51" height="2.51" transform="translate(12.549 20.078)"/><rect class="a" width="2.51" height="2.51" transform="translate(12.549 17.567)"/><rect class="a" width="2.51" height="2.51" transform="translate(12.549 15.058)"/><rect class="a" width="2.51" height="2.51" transform="translate(12.549 7.529)"/><rect class="a" width="2.51" height="2.51" transform="translate(12.549 5.019)"/><rect class="a" width="2.51" height="2.51" transform="translate(10.039 47.685)"/><rect class="a" width="2.51" height="2.51" transform="translate(10.039 45.174)"/><rect class="a" width="2.51" height="2.51" transform="translate(10.039 42.665)"/><rect class="a" width="2.51" height="2.51" transform="translate(10.039 40.155)"/><rect class="a" width="2.51" height="2.51" transform="translate(10.039 37.646)"/><rect class="a" width="2.51" height="2.51" transform="translate(10.039 35.135)"/><rect class="a" width="2.51" height="2.51" transform="translate(10.039 32.626)"/><rect class="a" width="2.51" height="2.51" transform="translate(10.039 30.116)"/><rect class="a" width="2.51" height="2.51" transform="translate(10.039 27.606)"/><rect class="a" width="2.51" height="2.51" transform="translate(10.039 25.097)"/><rect class="a" width="2.51" height="2.51" transform="translate(10.039 22.587)"/><rect class="a" width="2.51" height="2.51" transform="translate(10.039 20.078)"/><rect class="a" width="2.51" height="2.51" transform="translate(10.039 17.567)"/><rect class="a" width="2.51" height="2.51" transform="translate(10.039 15.058)"/><rect class="a" width="2.51" height="2.51" transform="translate(10.039 12.548)"/><rect class="a" width="2.51" height="2.51" transform="translate(7.529 47.685)"/><rect class="a" width="2.51" height="2.51" transform="translate(7.529 45.174)"/><rect class="a" width="2.51" height="2.51" transform="translate(7.529 42.665)"/><rect class="a" width="2.51" height="2.51" transform="translate(7.529 40.155)"/><rect class="a" width="2.51" height="2.51" transform="translate(7.529 37.646)"/><rect class="a" width="2.51" height="2.51" transform="translate(7.529 35.135)"/><rect class="a" width="2.51" height="2.51" transform="translate(7.529 32.626)"/><rect class="a" width="2.51" height="2.51" transform="translate(7.529 30.116)"/><rect class="a" width="2.51" height="2.51" transform="translate(7.529 27.606)"/><rect class="a" width="2.51" height="2.51" transform="translate(7.529 25.097)"/><rect class="a" width="2.51" height="2.51" transform="translate(7.529 7.529)"/><rect class="a" width="2.51" height="2.51" transform="translate(7.529 5.019)"/><rect class="a" width="2.51" height="2.51" transform="translate(7.529 2.51)"/><rect class="a" width="2.51" height="2.51" transform="translate(7.529 0)"/><rect class="a" width="2.51" height="2.51" transform="translate(5.02 47.685)"/><rect class="a" width="2.51" height="2.51" transform="translate(5.02 45.174)"/><rect class="a" width="2.51" height="2.51" transform="translate(5.02 42.665)"/><rect class="a" width="2.51" height="2.51" transform="translate(5.02 40.155)"/><rect class="a" width="2.51" height="2.51" transform="translate(5.02 37.646)"/><rect class="a" width="2.51" height="2.51" transform="translate(5.02 35.135)"/><rect class="a" width="2.51" height="2.51" transform="translate(5.02 32.626)"/><rect class="a" width="2.51" height="2.51" transform="translate(5.02 30.116)"/><rect class="a" width="2.51" height="2.51" transform="translate(5.02 27.606)"/><rect class="a" width="2.51" height="2.51" transform="translate(5.02 25.097)"/><rect class="a" width="2.51" height="2.51" transform="translate(5.02 22.587)"/><rect class="a" width="2.51" height="2.51" transform="translate(5.02 17.567)"/><rect class="a" width="2.51" height="2.51" transform="translate(5.02 15.058)"/><rect class="a" width="2.51" height="2.51" transform="translate(2.51 45.174)"/><rect class="a" width="2.51" height="2.51" transform="translate(2.51 42.665)"/><rect class="a" width="2.51" height="2.51" transform="translate(2.51 40.155)"/><rect class="a" width="2.51" height="2.51" transform="translate(2.51 37.646)"/><rect class="a" width="2.51" height="2.51" transform="translate(2.51 35.135)"/><rect class="a" width="2.51" height="2.51" transform="translate(2.51 32.626)"/><rect class="a" width="2.51" height="2.51" transform="translate(2.51 30.116)"/><rect class="a" width="2.51" height="2.51" transform="translate(2.51 25.097)"/><rect class="a" width="2.51" height="2.51" transform="translate(0 42.665)"/><rect class="a" width="2.51" height="2.51" transform="translate(0 40.155)"/><rect class="a" width="2.51" height="2.51" transform="translate(0 37.646)"/><rect class="a" width="2.51" height="2.51" transform="translate(0 35.135)"/><rect class="a" width="2.51" height="2.51" transform="translate(0 32.626)"/></g><g transform="translate(10.04 30.116)"><rect class="a" width="2.51" height="2.51" transform="translate(12.548 0)"/><rect class="a" width="2.51" height="2.51" transform="translate(0 7.529)"/><rect class="a" width="2.51" height="2.51" transform="translate(15.058 22.587)"/><rect class="a" width="2.51" height="2.51" transform="translate(15.058 20.078)"/><rect class="a" width="2.51" height="2.51" transform="translate(12.548 22.587)"/><rect class="a" width="2.51" height="2.51" transform="translate(10.039 10.039)"/><rect class="a" width="2.51" height="2.51" transform="translate(10.039 7.529)"/><rect class="a" width="2.51" height="2.51" transform="translate(17.567 25.097)"/><rect class="a" width="2.51" height="2.51" transform="translate(17.567 27.607)"/><rect class="a" width="2.51" height="2.51" transform="translate(5.019 37.646)"/><rect class="a" width="2.51" height="2.51" transform="translate(10.039 37.646)"/><rect class="a" width="2.51" height="2.51" transform="translate(7.529 37.646)"/><rect class="a" width="2.51" height="2.51" transform="translate(15.058 35.135)"/><rect class="a" width="2.51" height="2.51" transform="translate(15.058 32.626)"/><rect class="a" width="2.51" height="2.51" transform="translate(2.51 35.135)"/><rect class="a" width="2.51" height="2.51" transform="translate(0 35.135)"/><rect class="a" width="2.51" height="2.51" transform="translate(15.058 30.116)"/><rect class="a" width="2.51" height="2.51" transform="translate(15.058 27.607)"/><rect class="a" width="2.51" height="2.51" transform="translate(15.058 25.097)"/><rect class="a" width="2.51" height="2.51" transform="translate(2.51 32.626)"/><rect class="a" width="2.51" height="2.51" transform="translate(0 30.116)"/><rect class="a" width="2.51" height="2.51" transform="translate(0 27.607)"/><rect class="a" width="2.51" height="2.51" transform="translate(5.019 25.097)"/><rect class="a" width="2.51" height="2.51" transform="translate(2.51 27.607)"/><rect class="a" width="2.51" height="2.51" transform="translate(2.51 25.097)"/><rect class="a" width="2.51" height="2.51" transform="translate(2.51 30.116)"/><rect class="a" width="2.51" height="2.51" transform="translate(2.51 22.587)"/><rect class="a" width="2.51" height="2.51" transform="translate(12.548 25.097)"/><rect class="a" width="2.51" height="2.51" transform="translate(12.548 27.607)"/><rect class="a" width="2.51" height="2.51" transform="translate(7.529 20.078)"/><rect class="a" width="2.51" height="2.51" transform="translate(10.039 22.587)"/><rect class="a" width="2.51" height="2.51" transform="translate(10.039 20.078)"/><rect class="a" width="2.51" height="2.51" transform="translate(10.039 17.567)"/><rect class="a" width="2.51" height="2.51" transform="translate(10.039 15.058)"/><rect class="a" width="2.51" height="2.51" transform="translate(10.039 25.097)"/><rect class="a" width="2.51" height="2.51" transform="translate(7.529 22.587)"/><rect class="a" width="2.51" height="2.51" transform="translate(7.529 25.097)"/><rect class="a" width="2.51" height="2.51" transform="translate(12.548 32.626)"/><rect class="a" width="2.51" height="2.51" transform="translate(12.548 30.116)"/><rect class="a" width="2.51" height="2.51" transform="translate(7.529 27.607)"/><rect class="a" width="2.51" height="2.51" transform="translate(5.019 27.607)"/><rect class="a" width="2.51" height="2.51" transform="translate(10.039 27.607)"/><rect class="a" width="2.51" height="2.51" transform="translate(10.039 30.116)"/><rect class="a" width="2.51" height="2.51" transform="translate(10.039 32.626)"/><rect class="a" width="2.51" height="2.51" transform="translate(10.039 35.135)"/><rect class="a" width="2.51" height="2.51" transform="translate(5.019 35.135)"/><rect class="a" width="2.51" height="2.51" transform="translate(12.548 35.135)"/><rect class="a" width="2.51" height="2.51" transform="translate(7.529 30.116)"/><rect class="a" width="2.51" height="2.51" transform="translate(7.529 32.626)"/><rect class="a" width="2.51" height="2.51" transform="translate(7.529 35.135)"/><rect class="a" width="2.51" height="2.51" transform="translate(5.019 32.626)"/><rect class="a" width="2.51" height="2.51" transform="translate(5.019 30.116)"/></g></g><g transform="translate(3.301 11.075)"><g transform="translate(0 0)"><rect class="b" width="2.059" height="2.059" transform="translate(28.833 49.428)"/><rect class="b" width="2.059" height="2.059" transform="translate(28.833 47.369)"/><rect class="b" width="2.059" height="2.06" transform="translate(28.833 45.309)"/><rect class="b" width="2.059" height="2.059" transform="translate(28.833 43.249)"/><rect class="b" width="2.059" height="2.059" transform="translate(28.833 41.19)"/><rect class="b" width="2.059" height="2.06" transform="translate(28.833 39.13)"/><rect class="b" width="2.059" height="2.059" transform="translate(28.833 37.071)"/><rect class="b" width="2.059" height="2.059" transform="translate(28.833 35.011)"/><rect class="b" width="2.059" height="2.059" transform="translate(28.833 26.773)"/><rect class="b" width="2.059" height="2.059" transform="translate(26.774 55.607)"/><rect class="b" width="2.059" height="2.06" transform="translate(26.774 53.547)"/><rect class="b" width="2.059" height="2.059" transform="translate(26.774 51.487)"/><rect class="b" width="2.059" height="2.059" transform="translate(26.774 49.428)"/><rect class="b" width="2.059" height="2.059" transform="translate(26.774 47.369)"/><rect class="b" width="2.059" height="2.06" transform="translate(26.774 45.309)"/><rect class="b" width="2.059" height="2.059" transform="translate(26.774 43.249)"/><rect class="b" width="2.059" height="2.059" transform="translate(26.774 41.19)"/><rect class="b" width="2.059" height="2.06" transform="translate(26.774 6.178)"/><rect class="b" width="2.059" height="2.059" transform="translate(24.715 57.666)"/><rect class="b" width="2.059" height="2.059" transform="translate(24.715 55.607)"/><rect class="b" width="2.059" height="2.06" transform="translate(24.715 53.547)"/><rect class="b" width="2.059" height="2.059" transform="translate(24.715 51.487)"/><rect class="b" width="2.059" height="2.059" transform="translate(24.715 49.428)"/><rect class="b" width="2.059" height="2.059" transform="translate(24.715 47.369)"/><rect class="b" width="2.059" height="2.06" transform="translate(24.715 45.309)"/><rect class="b" width="2.059" height="2.059" transform="translate(24.715 43.249)"/><rect class="b" width="2.059" height="2.059" transform="translate(24.715 41.19)"/><rect class="b" width="2.059" height="2.06" transform="translate(24.715 39.13)"/><rect class="b" width="2.059" height="2.059" transform="translate(24.715 37.071)"/><rect class="b" width="2.059" height="2.059" transform="translate(24.715 35.011)"/><rect class="b" width="2.059" height="2.059" transform="translate(24.715 32.952)"/><rect class="b" width="2.059" height="2.059" transform="translate(24.715 18.535)"/><rect class="b" width="2.059" height="2.059" transform="translate(24.715 16.476)"/><rect class="b" width="2.059" height="2.06" transform="translate(24.715 14.416)"/><rect class="b" width="2.06" height="2.059" transform="translate(22.655 57.666)"/><rect class="b" width="2.06" height="2.059" transform="translate(22.655 55.607)"/><rect class="b" width="2.06" height="2.06" transform="translate(22.655 53.547)"/><rect class="b" width="2.06" height="2.059" transform="translate(22.655 51.487)"/><rect class="b" width="2.06" height="2.059" transform="translate(22.655 49.428)"/><rect class="b" width="2.06" height="2.059" transform="translate(22.655 47.369)"/><rect class="b" width="2.06" height="2.06" transform="translate(22.655 45.309)"/><rect class="b" width="2.06" height="2.059" transform="translate(22.655 43.249)"/><rect class="b" width="2.06" height="2.059" transform="translate(22.655 41.19)"/><rect class="b" width="2.06" height="2.06" transform="translate(22.655 39.13)"/><rect class="b" width="2.06" height="2.059" transform="translate(22.655 37.071)"/><rect class="b" width="2.06" height="2.059" transform="translate(22.655 35.011)"/><rect class="b" width="2.06" height="2.059" transform="translate(22.655 32.952)"/><rect class="b" width="2.059" height="2.059" transform="translate(20.595 57.666)"/><rect class="b" width="2.059" height="2.059" transform="translate(20.595 55.607)"/><rect class="b" width="2.059" height="2.06" transform="translate(20.595 53.547)"/><rect class="b" width="2.059" height="2.059" transform="translate(20.595 51.487)"/><rect class="b" width="2.059" height="2.059" transform="translate(20.595 49.428)"/><rect class="b" width="2.059" height="2.059" transform="translate(20.595 47.369)"/><rect class="b" width="2.059" height="2.06" transform="translate(20.595 45.309)"/><rect class="b" width="2.059" height="2.059" transform="translate(20.595 43.249)"/><rect class="b" width="2.059" height="2.059" transform="translate(20.595 41.19)"/><rect class="b" width="2.059" height="2.06" transform="translate(20.595 39.13)"/><rect class="b" width="2.059" height="2.059" transform="translate(20.595 37.071)"/><rect class="b" width="2.059" height="2.059" transform="translate(20.595 35.011)"/><rect class="b" width="2.059" height="2.059" transform="translate(20.595 32.952)"/><rect class="b" width="2.059" height="2.06" transform="translate(20.595 30.892)"/><rect class="b" width="2.059" height="2.059" transform="translate(20.595 28.833)"/><rect class="b" width="2.059" height="2.059" transform="translate(20.595 26.773)"/><rect class="b" width="2.059" height="2.059" transform="translate(18.536 57.666)"/><rect class="b" width="2.059" height="2.059" transform="translate(18.536 55.607)"/><rect class="b" width="2.059" height="2.06" transform="translate(18.536 53.547)"/><rect class="b" width="2.059" height="2.059" transform="translate(18.536 51.487)"/><rect class="b" width="2.059" height="2.059" transform="translate(18.536 49.428)"/><rect class="b" width="2.059" height="2.059" transform="translate(18.536 47.369)"/><rect class="b" width="2.059" height="2.06" transform="translate(18.536 45.309)"/><rect class="b" width="2.059" height="2.059" transform="translate(18.536 43.249)"/><rect class="b" width="2.059" height="2.059" transform="translate(18.536 41.19)"/><rect class="b" width="2.059" height="2.06" transform="translate(18.536 39.13)"/><rect class="b" width="2.059" height="2.059" transform="translate(18.536 37.071)"/><rect class="b" width="2.059" height="2.059" transform="translate(18.536 35.011)"/><rect class="b" width="2.059" height="2.059" transform="translate(18.536 32.952)"/><rect class="b" width="2.059" height="2.06" transform="translate(18.536 30.892)"/><rect class="b" width="2.059" height="2.059" transform="translate(18.536 28.833)"/><rect class="b" width="2.059" height="2.059" transform="translate(18.536 26.773)"/><rect class="b" width="2.059" height="2.059" transform="translate(18.536 24.714)"/><rect class="b" width="2.059" height="2.06" transform="translate(18.536 22.654)"/><rect class="b" width="2.059" height="2.059" transform="translate(18.536 20.595)"/><rect class="b" width="2.059" height="2.059" transform="translate(16.477 57.666)"/><rect class="b" width="2.059" height="2.059" transform="translate(16.477 55.607)"/><rect class="b" width="2.059" height="2.06" transform="translate(16.477 53.547)"/><rect class="b" width="2.059" height="2.059" transform="translate(16.477 51.487)"/><rect class="b" width="2.059" height="2.059" transform="translate(16.477 49.428)"/><rect class="b" width="2.059" height="2.059" transform="translate(16.477 47.369)"/><rect class="b" width="2.059" height="2.06" transform="translate(16.477 45.309)"/><rect class="b" width="2.059" height="2.059" transform="translate(16.477 43.249)"/><rect class="b" width="2.059" height="2.059" transform="translate(16.477 41.19)"/><rect class="b" width="2.059" height="2.06" transform="translate(16.477 39.13)"/><rect class="b" width="2.059" height="2.059" transform="translate(16.477 37.071)"/><rect class="b" width="2.059" height="2.059" transform="translate(16.477 35.011)"/><rect class="b" width="2.059" height="2.059" transform="translate(16.477 32.952)"/><rect class="b" width="2.059" height="2.06" transform="translate(16.477 30.892)"/><rect class="b" width="2.059" height="2.059" transform="translate(16.477 28.833)"/><rect class="b" width="2.059" height="2.059" transform="translate(16.477 26.773)"/><rect class="b" width="2.059" height="2.059" transform="translate(16.477 24.714)"/><rect class="b" width="2.059" height="2.06" transform="translate(16.477 22.654)"/><rect class="b" width="2.059" height="2.059" transform="translate(16.477 20.595)"/><rect class="b" width="2.059" height="2.059" transform="translate(16.477 10.297)"/><rect class="b" width="2.059" height="2.059" transform="translate(16.477 4.119)"/><rect class="b" width="2.06" height="2.059" transform="translate(14.417 57.666)"/><rect class="b" width="2.06" height="2.059" transform="translate(14.417 55.607)"/><rect class="b" width="2.06" height="2.06" transform="translate(14.417 53.547)"/><rect class="b" width="2.06" height="2.059" transform="translate(14.417 51.487)"/><rect class="b" width="2.06" height="2.059" transform="translate(14.417 49.428)"/><rect class="b" width="2.06" height="2.059" transform="translate(14.417 47.369)"/><rect class="b" width="2.06" height="2.06" transform="translate(14.417 45.309)"/><rect class="b" width="2.06" height="2.059" transform="translate(14.417 43.249)"/><rect class="b" width="2.06" height="2.059" transform="translate(14.417 41.19)"/><rect class="b" width="2.06" height="2.06" transform="translate(14.417 39.13)"/><rect class="b" width="2.06" height="2.059" transform="translate(14.417 37.071)"/><rect class="b" width="2.06" height="2.059" transform="translate(14.417 35.011)"/><rect class="b" width="2.06" height="2.059" transform="translate(14.417 32.952)"/><rect class="b" width="2.06" height="2.06" transform="translate(14.417 30.892)"/><rect class="b" width="2.06" height="2.059" transform="translate(14.417 28.833)"/><rect class="b" width="2.06" height="2.059" transform="translate(14.417 26.773)"/><rect class="b" width="2.06" height="2.059" transform="translate(14.417 24.714)"/><rect class="b" width="2.06" height="2.06" transform="translate(14.417 22.654)"/><rect class="b" width="2.06" height="2.059" transform="translate(14.417 20.595)"/><rect class="b" width="2.06" height="2.059" transform="translate(14.417 18.535)"/><rect class="b" width="2.06" height="2.059" transform="translate(14.417 16.476)"/><rect class="b" width="2.06" height="2.06" transform="translate(14.417 14.416)"/><rect class="b" width="2.059" height="2.059" transform="translate(12.357 57.666)"/><rect class="b" width="2.059" height="2.059" transform="translate(12.357 55.607)"/><rect class="b" width="2.059" height="2.06" transform="translate(12.357 53.547)"/><rect class="b" width="2.059" height="2.059" transform="translate(12.357 51.487)"/><rect class="b" width="2.059" height="2.059" transform="translate(12.357 49.428)"/><rect class="b" width="2.059" height="2.059" transform="translate(12.357 47.369)"/><rect class="b" width="2.059" height="2.06" transform="translate(12.357 45.309)"/><rect class="b" width="2.059" height="2.059" transform="translate(12.357 43.249)"/><rect class="b" width="2.059" height="2.059" transform="translate(12.357 41.19)"/><rect class="b" width="2.059" height="2.06" transform="translate(12.357 39.13)"/><rect class="b" width="2.059" height="2.059" transform="translate(12.357 37.071)"/><rect class="b" width="2.059" height="2.059" transform="translate(12.357 35.011)"/><rect class="b" width="2.059" height="2.059" transform="translate(12.357 32.952)"/><rect class="b" width="2.059" height="2.06" transform="translate(12.357 30.892)"/><rect class="b" width="2.059" height="2.059" transform="translate(12.357 28.833)"/><rect class="b" width="2.059" height="2.059" transform="translate(12.357 26.773)"/><rect class="b" width="2.059" height="2.059" transform="translate(12.357 24.714)"/><rect class="b" width="2.059" height="2.06" transform="translate(12.357 22.654)"/><rect class="b" width="2.059" height="2.059" transform="translate(12.357 20.595)"/><rect class="b" width="2.059" height="2.059" transform="translate(12.357 18.535)"/><rect class="b" width="2.059" height="2.059" transform="translate(12.357 16.476)"/><rect class="b" width="2.059" height="2.06" transform="translate(12.357 14.416)"/><rect class="b" width="2.059" height="2.059" transform="translate(10.298 57.666)"/><rect class="b" width="2.059" height="2.059" transform="translate(10.298 55.607)"/><rect class="b" width="2.059" height="2.06" transform="translate(10.298 53.547)"/><rect class="b" width="2.059" height="2.059" transform="translate(10.298 51.487)"/><rect class="b" width="2.059" height="2.059" transform="translate(10.298 49.428)"/><rect class="b" width="2.059" height="2.059" transform="translate(10.298 47.369)"/><rect class="b" width="2.059" height="2.06" transform="translate(10.298 45.309)"/><rect class="b" width="2.059" height="2.059" transform="translate(10.298 43.249)"/><rect class="b" width="2.059" height="2.059" transform="translate(10.298 41.19)"/><rect class="b" width="2.059" height="2.06" transform="translate(10.298 39.13)"/><rect class="b" width="2.059" height="2.059" transform="translate(10.298 37.071)"/><rect class="b" width="2.059" height="2.059" transform="translate(10.298 35.011)"/><rect class="b" width="2.059" height="2.059" transform="translate(10.298 32.952)"/><rect class="b" width="2.059" height="2.06" transform="translate(10.298 30.892)"/><rect class="b" width="2.059" height="2.059" transform="translate(10.298 28.833)"/><rect class="b" width="2.059" height="2.059" transform="translate(10.298 26.773)"/><rect class="b" width="2.059" height="2.059" transform="translate(10.298 24.714)"/><rect class="b" width="2.059" height="2.06" transform="translate(10.298 22.654)"/><rect class="b" width="2.059" height="2.059" transform="translate(10.298 4.119)"/><rect class="b" width="2.059" height="2.059" transform="translate(10.298 2.059)"/><rect class="b" width="2.059" height="2.059" transform="translate(10.298)"/><rect class="b" width="2.059" height="2.059" transform="translate(8.239 57.666)"/><rect class="b" width="2.059" height="2.059" transform="translate(8.239 55.607)"/><rect class="b" width="2.059" height="2.06" transform="translate(8.239 53.547)"/><rect class="b" width="2.059" height="2.059" transform="translate(8.239 51.487)"/><rect class="b" width="2.059" height="2.059" transform="translate(8.239 49.428)"/><rect class="b" width="2.059" height="2.059" transform="translate(8.239 47.369)"/><rect class="b" width="2.059" height="2.06" transform="translate(8.239 45.309)"/><rect class="b" width="2.059" height="2.059" transform="translate(8.239 43.249)"/><rect class="b" width="2.059" height="2.059" transform="translate(8.239 41.19)"/><rect class="b" width="2.059" height="2.06" transform="translate(8.239 39.13)"/><rect class="b" width="2.059" height="2.059" transform="translate(8.239 37.071)"/><rect class="b" width="2.059" height="2.059" transform="translate(8.239 35.011)"/><rect class="b" width="2.059" height="2.059" transform="translate(8.239 32.952)"/><rect class="b" width="2.059" height="2.06" transform="translate(8.239 30.892)"/><rect class="b" width="2.059" height="2.059" transform="translate(8.239 28.833)"/><rect class="b" width="2.059" height="2.059" transform="translate(8.239 26.773)"/><rect class="b" width="2.059" height="2.059" transform="translate(8.239 24.714)"/><rect class="b" width="2.059" height="2.06" transform="translate(8.239 22.654)"/><rect class="b" width="2.059" height="2.059" transform="translate(8.239 16.476)"/><rect class="b" width="2.059" height="2.06" transform="translate(8.239 14.416)"/><rect class="b" width="2.059" height="2.059" transform="translate(8.239 12.357)"/><rect class="b" width="2.06" height="2.059" transform="translate(6.179 57.666)"/><rect class="b" width="2.06" height="2.059" transform="translate(6.179 55.607)"/><rect class="b" width="2.06" height="2.06" transform="translate(6.179 53.547)"/><rect class="b" width="2.06" height="2.059" transform="translate(6.179 51.487)"/><rect class="b" width="2.06" height="2.059" transform="translate(6.179 49.428)"/><rect class="b" width="2.06" height="2.059" transform="translate(6.179 47.369)"/><rect class="b" width="2.06" height="2.06" transform="translate(6.179 45.309)"/><rect class="b" width="2.06" height="2.059" transform="translate(6.179 43.249)"/><rect class="b" width="2.06" height="2.059" transform="translate(6.179 41.19)"/><rect class="b" width="2.06" height="2.06" transform="translate(6.179 39.13)"/><rect class="b" width="2.06" height="2.059" transform="translate(6.179 37.071)"/><rect class="b" width="2.06" height="2.059" transform="translate(6.179 35.011)"/><rect class="b" width="2.06" height="2.059" transform="translate(6.179 32.952)"/><rect class="b" width="2.06" height="2.06" transform="translate(6.179 30.892)"/><rect class="b" width="2.059" height="2.059" transform="translate(4.119 55.607)"/><rect class="b" width="2.059" height="2.06" transform="translate(4.119 53.547)"/><rect class="b" width="2.059" height="2.059" transform="translate(4.119 51.487)"/><rect class="b" width="2.059" height="2.059" transform="translate(4.119 49.428)"/><rect class="b" width="2.059" height="2.059" transform="translate(4.119 47.369)"/><rect class="b" width="2.059" height="2.06" transform="translate(4.119 45.309)"/><rect class="b" width="2.059" height="2.059" transform="translate(4.119 43.249)"/><rect class="b" width="2.059" height="2.059" transform="translate(4.119 41.19)"/><rect class="b" width="2.059" height="2.06" transform="translate(4.119 39.13)"/><rect class="b" width="2.059" height="2.059" transform="translate(4.119 37.071)"/><rect class="b" width="2.059" height="2.059" transform="translate(4.119 35.011)"/><rect class="b" width="2.059" height="2.06" transform="translate(2.06 53.547)"/><rect class="b" width="2.059" height="2.059" transform="translate(2.06 51.487)"/><rect class="b" width="2.059" height="2.059" transform="translate(2.06 49.428)"/><rect class="b" width="2.059" height="2.059" transform="translate(2.06 47.369)"/><rect class="b" width="2.059" height="2.06" transform="translate(2.06 45.309)"/><rect class="b" width="2.059" height="2.059" transform="translate(2.06 43.249)"/><rect class="b" width="2.059" height="2.059" transform="translate(2.06 41.19)"/><rect class="b" width="2.059" height="2.059" transform="translate(2.06 20.595)"/><rect class="b" width="2.06" height="2.059" transform="translate(0 47.369)"/><rect class="b" width="2.06" height="2.06" transform="translate(0 45.309)"/><rect class="b" width="2.06" height="2.059" transform="translate(0 43.249)"/><rect class="b" width="2.06" height="2.059" transform="translate(0 41.19)"/><rect class="b" width="2.06" height="2.06" transform="translate(0 39.13)"/><rect class="b" width="2.06" height="2.059" transform="translate(0 37.071)"/><rect class="b" width="2.06" height="2.06" transform="translate(0 30.892)"/><rect class="b" width="2.06" height="2.059" transform="translate(0 10.297)"/><rect class="b" width="2.06" height="2.059" transform="translate(0 8.238)"/></g><g transform="translate(6.179 16.476)"><rect class="c" width="2.06" height="2.06" transform="translate(16.476 37.071)"/><rect class="c" width="2.06" height="2.059" transform="translate(16.476 35.011)"/><rect class="c" width="2.06" height="2.059" transform="translate(16.476 32.952)"/><rect class="c" width="2.06" height="2.059" transform="translate(16.476 30.893)"/><rect class="c" width="2.06" height="2.06" transform="translate(16.476 28.833)"/><rect class="c" width="2.06" height="2.059" transform="translate(16.476 26.773)"/><rect class="c" width="2.06" height="2.059" transform="translate(16.476 24.714)"/><rect class="c" width="2.06" height="2.059" transform="translate(16.476 18.535)"/><rect class="c" width="2.059" height="2.059" transform="translate(14.417 39.131)"/><rect class="c" width="2.059" height="2.06" transform="translate(14.417 37.071)"/><rect class="c" width="2.059" height="2.059" transform="translate(14.417 35.011)"/><rect class="c" width="2.059" height="2.059" transform="translate(14.417 32.952)"/><rect class="c" width="2.059" height="2.059" transform="translate(14.417 30.893)"/><rect class="c" width="2.059" height="2.06" transform="translate(14.417 28.833)"/><rect class="c" width="2.059" height="2.059" transform="translate(14.417 26.773)"/><rect class="c" width="2.059" height="2.059" transform="translate(14.417 24.714)"/><rect class="c" width="2.059" height="2.06" transform="translate(14.417 22.654)"/><rect class="c" width="2.059" height="2.059" transform="translate(12.357 39.131)"/><rect class="c" width="2.059" height="2.06" transform="translate(12.357 37.071)"/><rect class="c" width="2.059" height="2.059" transform="translate(12.357 35.011)"/><rect class="c" width="2.059" height="2.059" transform="translate(12.357 32.952)"/><rect class="c" width="2.059" height="2.059" transform="translate(12.357 30.893)"/><rect class="c" width="2.059" height="2.06" transform="translate(12.357 28.833)"/><rect class="c" width="2.059" height="2.059" transform="translate(12.357 26.773)"/><rect class="c" width="2.059" height="2.059" transform="translate(12.357 24.714)"/><rect class="c" width="2.059" height="2.06" transform="translate(12.357 22.654)"/><rect class="c" width="2.059" height="2.059" transform="translate(12.357 20.595)"/><rect class="c" width="2.059" height="2.059" transform="translate(12.357 18.535)"/><rect class="c" width="2.059" height="2.059" transform="translate(12.357 16.476)"/><rect class="c" width="2.059" height="2.06" transform="translate(12.357 14.416)"/><rect class="c" width="2.059" height="2.059" transform="translate(12.357 12.357)"/><rect class="c" width="2.059" height="2.059" transform="translate(10.298 39.131)"/><rect class="c" width="2.059" height="2.06" transform="translate(10.298 37.071)"/><rect class="c" width="2.059" height="2.059" transform="translate(10.298 35.011)"/><rect class="c" width="2.059" height="2.059" transform="translate(10.298 32.952)"/><rect class="c" width="2.059" height="2.059" transform="translate(10.298 30.893)"/><rect class="c" width="2.059" height="2.06" transform="translate(10.298 28.833)"/><rect class="c" width="2.059" height="2.059" transform="translate(10.298 26.773)"/><rect class="c" width="2.059" height="2.059" transform="translate(10.298 24.714)"/><rect class="c" width="2.059" height="2.06" transform="translate(10.298 22.654)"/><rect class="c" width="2.059" height="2.059" transform="translate(10.298 20.595)"/><rect class="c" width="2.059" height="2.059" transform="translate(10.298 18.535)"/><rect class="c" width="2.059" height="2.059" transform="translate(10.298 16.476)"/><rect class="c" width="2.059" height="2.06" transform="translate(10.298 14.416)"/><rect class="c" width="2.059" height="2.059" transform="translate(10.298 12.357)"/><rect class="c" width="2.059" height="2.06" transform="translate(10.298 6.178)"/><rect class="c" width="2.059" height="2.059" transform="translate(10.298 4.119)"/><rect class="c" width="2.06" height="2.059" transform="translate(8.238 39.131)"/><rect class="c" width="2.06" height="2.06" transform="translate(8.238 37.071)"/><rect class="c" width="2.06" height="2.059" transform="translate(8.238 35.011)"/><rect class="c" width="2.06" height="2.059" transform="translate(8.238 32.952)"/><rect class="c" width="2.06" height="2.059" transform="translate(8.238 30.893)"/><rect class="c" width="2.06" height="2.06" transform="translate(8.238 28.833)"/><rect class="c" width="2.06" height="2.059" transform="translate(8.238 26.773)"/><rect class="c" width="2.06" height="2.059" transform="translate(8.238 24.714)"/><rect class="c" width="2.06" height="2.06" transform="translate(8.238 22.654)"/><rect class="c" width="2.06" height="2.059" transform="translate(8.238 20.595)"/><rect class="c" width="2.06" height="2.059" transform="translate(8.238 18.535)"/><rect class="c" width="2.06" height="2.059" transform="translate(8.238 16.476)"/><rect class="c" width="2.06" height="2.06" transform="translate(8.238 14.416)"/><rect class="c" width="2.06" height="2.059" transform="translate(8.238 12.357)"/><rect class="c" width="2.06" height="2.059" transform="translate(8.238 10.297)"/><rect class="c" width="2.059" height="2.059" transform="translate(6.179 39.131)"/><rect class="c" width="2.059" height="2.06" transform="translate(6.179 37.071)"/><rect class="c" width="2.059" height="2.059" transform="translate(6.179 35.011)"/><rect class="c" width="2.059" height="2.059" transform="translate(6.179 32.952)"/><rect class="c" width="2.059" height="2.059" transform="translate(6.179 30.893)"/><rect class="c" width="2.059" height="2.06" transform="translate(6.179 28.833)"/><rect class="c" width="2.059" height="2.059" transform="translate(6.179 26.773)"/><rect class="c" width="2.059" height="2.059" transform="translate(6.179 24.714)"/><rect class="c" width="2.059" height="2.06" transform="translate(6.179 22.654)"/><rect class="c" width="2.059" height="2.059" transform="translate(6.179 20.595)"/><rect class="c" width="2.059" height="2.06" transform="translate(6.179 6.178)"/><rect class="c" width="2.059" height="2.059" transform="translate(6.179 4.119)"/><rect class="c" width="2.059" height="2.059" transform="translate(6.179 2.059)"/><rect class="c" width="2.059" height="2.059" transform="translate(6.179 0)"/><rect class="c" width="2.059" height="2.059" transform="translate(4.119 39.131)"/><rect class="c" width="2.059" height="2.06" transform="translate(4.119 37.071)"/><rect class="c" width="2.059" height="2.059" transform="translate(4.119 35.011)"/><rect class="c" width="2.059" height="2.059" transform="translate(4.119 32.952)"/><rect class="c" width="2.059" height="2.059" transform="translate(4.119 30.893)"/><rect class="c" width="2.059" height="2.06" transform="translate(4.119 28.833)"/><rect class="c" width="2.059" height="2.059" transform="translate(4.119 26.773)"/><rect class="c" width="2.059" height="2.059" transform="translate(4.119 24.714)"/><rect class="c" width="2.059" height="2.06" transform="translate(4.119 22.654)"/><rect class="c" width="2.059" height="2.059" transform="translate(4.119 20.595)"/><rect class="c" width="2.059" height="2.059" transform="translate(4.119 18.535)"/><rect class="c" width="2.059" height="2.06" transform="translate(4.119 14.416)"/><rect class="c" width="2.059" height="2.059" transform="translate(4.119 12.357)"/><rect class="c" width="2.059" height="2.06" transform="translate(2.06 37.071)"/><rect class="c" width="2.059" height="2.059" transform="translate(2.06 35.011)"/><rect class="c" width="2.059" height="2.059" transform="translate(2.06 32.952)"/><rect class="c" width="2.059" height="2.059" transform="translate(2.06 30.893)"/><rect class="c" width="2.059" height="2.06" transform="translate(2.06 28.833)"/><rect class="c" width="2.059" height="2.059" transform="translate(2.06 26.773)"/><rect class="c" width="2.059" height="2.059" transform="translate(2.06 24.714)"/><rect class="c" width="2.059" height="2.059" transform="translate(2.06 20.595)"/><rect class="c" width="2.06" height="2.059" transform="translate(0 35.011)"/><rect class="c" width="2.06" height="2.059" transform="translate(0 32.952)"/><rect class="c" width="2.06" height="2.059" transform="translate(0 30.893)"/><rect class="c" width="2.06" height="2.06" transform="translate(0 28.833)"/><rect class="c" width="2.06" height="2.059" transform="translate(0 26.773)"/></g><g transform="translate(8.239 24.714)"><rect class="d" width="2.059" height="2.059" transform="translate(10.297 0)"/><rect class="d" width="2.059" height="2.06" transform="translate(0 6.178)"/><rect class="d" width="2.059" height="2.059" transform="translate(12.357 18.535)"/><rect class="d" width="2.059" height="2.059" transform="translate(12.357 16.476)"/><rect class="d" width="2.059" height="2.059" transform="translate(10.297 18.535)"/><rect class="d" width="2.059" height="2.059" transform="translate(8.238 8.238)"/><rect class="d" width="2.059" height="2.06" transform="translate(8.238 6.178)"/><rect class="d" width="2.06" height="2.06" transform="translate(14.416 20.595)"/><rect class="d" width="2.06" height="2.059" transform="translate(14.416 22.655)"/><rect class="d" width="2.059" height="2.059" transform="translate(4.119 30.893)"/><rect class="d" width="2.059" height="2.059" transform="translate(8.238 30.893)"/><rect class="d" width="2.06" height="2.059" transform="translate(6.178 30.893)"/><rect class="d" width="2.059" height="2.06" transform="translate(12.357 28.833)"/><rect class="d" width="2.059" height="2.059" transform="translate(12.357 26.773)"/><rect class="d" width="2.059" height="2.06" transform="translate(2.059 28.833)"/><rect class="d" width="2.059" height="2.06" transform="translate(0 28.833)"/><rect class="d" width="2.059" height="2.059" transform="translate(12.357 24.714)"/><rect class="d" width="2.059" height="2.059" transform="translate(12.357 22.655)"/><rect class="d" width="2.059" height="2.06" transform="translate(12.357 20.595)"/><rect class="d" width="2.059" height="2.059" transform="translate(2.059 26.773)"/><rect class="d" width="2.059" height="2.059" transform="translate(0 24.714)"/><rect class="d" width="2.059" height="2.059" transform="translate(0 22.655)"/><rect class="d" width="2.059" height="2.06" transform="translate(4.119 20.595)"/><rect class="d" width="2.059" height="2.059" transform="translate(2.059 22.655)"/><rect class="d" width="2.059" height="2.06" transform="translate(2.059 20.595)"/><rect class="d" width="2.059" height="2.059" transform="translate(2.059 24.714)"/><rect class="d" width="2.059" height="2.059" transform="translate(2.059 18.535)"/><rect class="d" width="2.059" height="2.06" transform="translate(10.297 20.595)"/><rect class="d" width="2.059" height="2.059" transform="translate(10.297 22.655)"/><rect class="d" width="2.06" height="2.059" transform="translate(6.178 16.476)"/><rect class="d" width="2.059" height="2.059" transform="translate(8.238 18.535)"/><rect class="d" width="2.059" height="2.059" transform="translate(8.238 16.476)"/><rect class="d" width="2.059" height="2.06" transform="translate(8.238 14.416)"/><rect class="d" width="2.059" height="2.059" transform="translate(8.238 12.357)"/><rect class="d" width="2.059" height="2.06" transform="translate(8.238 20.595)"/><rect class="d" width="2.06" height="2.059" transform="translate(6.178 18.535)"/><rect class="d" width="2.06" height="2.06" transform="translate(6.178 20.595)"/><rect class="d" width="2.059" height="2.059" transform="translate(10.297 26.773)"/><rect class="d" width="2.059" height="2.059" transform="translate(10.297 24.714)"/><rect class="d" width="2.06" height="2.059" transform="translate(6.178 22.655)"/><rect class="d" width="2.059" height="2.059" transform="translate(4.119 22.655)"/><rect class="d" width="2.059" height="2.059" transform="translate(8.238 22.655)"/><rect class="d" width="2.059" height="2.059" transform="translate(8.238 24.714)"/><rect class="d" width="2.059" height="2.059" transform="translate(8.238 26.773)"/><rect class="d" width="2.059" height="2.06" transform="translate(8.238 28.833)"/><rect class="d" width="2.059" height="2.06" transform="translate(4.119 28.833)"/><rect class="d" width="2.059" height="2.06" transform="translate(10.297 28.833)"/><rect class="d" width="2.06" height="2.059" transform="translate(6.178 24.714)"/><rect class="d" width="2.06" height="2.059" transform="translate(6.178 26.773)"/><rect class="d" width="2.06" height="2.06" transform="translate(6.178 28.833)"/><rect class="d" width="2.059" height="2.059" transform="translate(4.119 26.773)"/><rect class="d" width="2.059" height="2.059" transform="translate(4.119 24.714)"/></g></g></g><g transform="translate(1391.9 461.142)"><rect class="a" width="2.06" height="2.06" transform="translate(0 8.237)"/><rect class="a" width="2.06" height="2.059" transform="translate(0 6.178)"/><rect class="a" width="2.06" height="2.059" transform="translate(0 4.119)"/><rect class="a" width="2.06" height="2.059" transform="translate(0 2.059)"/><rect class="a" width="2.06" height="2.06"/></g><g transform="translate(1391.9 471.142)"><rect class="a" width="2.06" height="2.06" transform="translate(0 8.237)"/><rect class="a" width="2.06" height="2.059" transform="translate(0 6.178)"/><rect class="a" width="2.06" height="2.059" transform="translate(0 4.119)"/><rect class="a" width="2.06" height="2.059" transform="translate(0 2.059)"/><rect class="a" width="2.06" height="2.06"/></g><g transform="translate(1390.651 461.142)"><rect class="c" width="2.06" height="2.06" transform="translate(0 8.237)"/><rect class="c" width="2.06" height="2.059" transform="translate(0 6.178)"/><rect class="c" width="2.06" height="2.059" transform="translate(0 4.119)"/><rect class="c" width="2.06" height="2.059" transform="translate(0 2.059)"/><rect class="c" width="2.06" height="2.06"/></g><g transform="translate(1390.651 471.142)"><rect class="c" width="2.06" height="2.06" transform="translate(0 8.237)"/><rect class="c" width="2.06" height="2.059" transform="translate(0 6.178)"/><rect class="c" width="2.06" height="2.059" transform="translate(0 4.119)"/><rect class="c" width="2.06" height="2.059" transform="translate(0 2.059)"/><rect class="c" width="2.06" height="2.06"/></g></g></svg>